<svg version="1.2" xmlns="http://www.w3.org/2000/svg" viewBox="0 0 1280 1148" width="1280" height="1148">
	<style>
		.s0 { fill: #000000 } 
	</style>
	<path id="Path 0" fill-rule="evenodd" class="s0" d="m667.76 290.99c0.41-0.01 12.04 19.46 25.85 43.25 13.81 23.79 24.95 43.6 24.75 44.01-0.2 0.41-8.69 0.75-37.36 0.75l-6.25-10.53c-3.44-5.79-6.48-10.52-6.75-10.5-0.27 0.02-7.76 12.74-16.64 28.28-8.88 15.54-19.9 34.68-24.5 42.53-4.6 7.86-8.13 14.44-7.86 14.64 0.27 0.2 28.17 9.82 62 21.38 33.83 11.57 68.53 23.43 77.13 26.36 8.59 2.94 15.9 5.68 16.25 6.09 0.34 0.41-5.05 10.76-11.98 23-6.93 12.24-15.32 26.98-18.65 32.75-3.33 5.77-6.55 11.3-7.15 12.28-1.04 1.68-6.27 1.79-190.1 2.22l-4.7 8c-2.58 4.4-4.49 8.34-4.25 8.75 0.25 0.41 9.22 0.75 19.95 0.75 10.73 0 19.68 0.34 19.9 0.75 0.22 0.41-3.49 7.84-16.9 32.27l-39.75-0.01c-25.49-0.01-39.93-0.37-40.25-1.01-0.27-0.55 2.16-5.61 5.41-11.25 3.26-5.64 10.06-17.45 15.12-26.25 5.06-8.8 17.63-30.63 27.92-48.5 10.29-17.88 21.05-36.77 23.91-42 2.86-5.23 5.19-9.84 5.17-10.25-0.02-0.41 0.76-0.75 1.72-0.75 0.96 0 8.05 2.2 15.75 4.89 7.88 2.75 14.12 5.48 14.26 6.25 0.15 0.75-5.14 10.7-11.75 22.11-6.6 11.41-11.78 21.2-11.51 21.75 0.33 0.65 26.17 1 148.5 1l1.33-2.25c0.72-1.24 2.97-5.06 5-8.5 2.02-3.44 3.5-6.81 3.3-7.5-0.21-0.69-15.39-6.36-33.75-12.6-18.36-6.24-42.61-14.48-53.88-18.32-11.27-3.84-26.58-8.96-34-11.37-7.42-2.41-17.89-5.86-23.26-7.67-5.36-1.81-9.77-3.74-9.78-4.29-0.02-0.55 10.61-19.45 23.61-42 13-22.55 30.05-52.02 37.89-65.5 7.84-13.48 17.86-30.8 22.26-38.5 4.4-7.7 9.2-16.36 10.66-19.25 1.45-2.89 2.98-5.25 3.38-5.26zm-3.74 105.01l31.74-0.04c29.09-0.04 31.92 0.1 33.87 1.75 1.17 0.98 5.03 6.96 8.59 13.29 3.55 6.32 13.51 23.87 22.15 39 8.63 15.12 15.68 27.84 15.66 28.25-0.02 0.41-0.26 0.75-0.53 0.75-0.27 0-9.39-3.07-20.25-6.83-10.86-3.76-21.08-7.47-22.71-8.25-2.26-1.08-5.01-5.08-20.38-32.42l-31.83-0.22c-24.45-0.16-32.09-0.51-32.96-1.5-0.87-0.98 0.13-3.49 4.29-10.78 2.98-5.23 6.98-12.54 8.89-16.25zm127.48 108.36c0.55 0.17 7.65 11.74 15.77 25.72 8.12 13.98 17.39 29.92 20.59 35.42 3.21 5.5 11.19 19.32 17.73 30.72 6.55 11.4 11.72 20.96 11.49 21.25-0.23 0.29-18 0.54-39.5 0.56-36.25 0.03-39.2-0.09-40.69-1.75-0.88-0.98-5.02-8.08-9.2-15.78-4.17-7.7-7.39-14.34-7.14-14.75 0.25-0.41 9.23-0.75 19.95-0.75 12.33 0 19.5-0.37 19.5-1 0-0.55-2.56-5.39-5.69-10.75-3.13-5.36-9.19-16.05-21.24-37.75l4.09-7.5c2.24-4.13 6.16-11.2 8.71-15.72 2.55-4.52 5.08-8.08 5.63-7.92zm-186.5 158.71c5.23-0.05 13.33 0.63 18 1.51 4.68 0.88 11.31 2.92 14.75 4.51 3.44 1.6 6.53 3.7 6.86 4.66 0.34 0.96-0.38 4-1.59 6.75-1.22 2.75-2.81 5.9-3.54 7-1.31 1.98-1.4 1.96-7.65-0.92-3.48-1.6-8.58-3.51-11.33-4.23-2.75-0.73-8.71-1.33-13.25-1.34-6.1-0.01-9.75 0.56-14 2.18-3.16 1.21-7.03 3.35-8.58 4.75-2.07 1.86-2.98 3.79-3.35 7.06-0.41 3.56-0.08 5.08 1.58 7.25 1.16 1.51 3.79 3.61 5.85 4.66 2.06 1.05 8.48 3.1 14.25 4.56 5.78 1.46 13.65 3.59 17.5 4.72 3.85 1.14 10.11 3.7 13.91 5.69 3.81 1.99 8.31 5.24 10 7.22 1.7 1.98 3.89 6.03 4.86 9 0.98 2.97 1.76 7.42 1.76 9.9-0.01 2.48-0.59 6.77-1.28 9.55-0.69 2.77-2.6 6.98-4.25 9.35-1.65 2.37-5.47 5.85-8.5 7.74-3.02 1.88-8.2 4.26-11.5 5.3-3.3 1.03-9.82 2.2-14.5 2.59-4.97 0.42-12.03 0.25-17-0.4-4.67-0.61-12.32-2.36-17-3.9-4.67-1.54-10.52-3.97-13-5.39-2.47-1.43-5.17-3.35-6-4.26-1.35-1.5-1.14-2.43 2-9.09 1.93-4.08 3.73-7.45 4-7.49 0.28-0.04 3.2 1.54 6.5 3.5 3.3 1.97 8.93 4.51 12.5 5.65 4.09 1.31 10.4 2.28 17 2.6 7.94 0.39 11.9 0.11 16.25-1.12 3.16-0.9 7.14-2.87 8.83-4.38 2.35-2.09 3.2-3.83 3.56-7.25 0.36-3.4-0.03-5.29-1.58-7.75-1.13-1.79-3.52-4.14-5.31-5.22-1.79-1.09-6.85-2.91-11.25-4.06-4.4-1.14-13.62-3.86-20.5-6.04-6.87-2.18-14.75-5.25-17.5-6.81-2.8-1.6-6.32-4.75-8-7.17-1.77-2.56-3.48-6.81-4.18-10.39-0.75-3.86-0.88-7.88-0.36-11.06 0.46-2.75 1.55-6.69 2.44-8.75 0.88-2.06 3.51-5.81 5.85-8.33 2.34-2.51 6.73-5.72 9.75-7.13 3.03-1.4 8.2-3.13 11.5-3.84 3.3-0.71 10.28-1.33 15.5-1.38zm-113.5 1.87l7.17 15.78c3.95 8.68 14.46 31.75 23.36 51.28 8.9 19.52 17.48 38.09 19.08 41.25 1.59 3.16 2.89 6.2 2.89 6.75 0 0.6-3.94 1.02-9.75 1.04-7.91 0.04-10.18-0.29-12.02-1.75-1.24-0.98-4.45-6.96-11.97-24.79h-59.73l-10.39 26-11.07 0.25c-6.88 0.16-11.07-0.13-11.07-0.75 0-0.55 0.84-2.91 1.86-5.25 1.03-2.34 5.27-11.67 9.42-20.75 4.16-9.08 14.57-32.36 23.14-51.75 8.57-19.39 15.58-35.7 15.58-36.25 0-0.61 4.6-1.01 23.5-1.06zm-23.16 49.16c-4.34 10.78-7.99 20.12-8.11 20.75-0.17 0.84 5.32 1.15 20.1 1.15 11.19 0 20.64-0.23 21-0.5 0.37-0.27-2.2-7.36-5.72-15.75-3.51-8.39-8.04-19.08-10.06-23.75-2.02-4.67-3.99-8.92-4.39-9.43-0.39-0.51-1.66 1.07-2.82 3.5-1.16 2.44-5.66 13.25-10 24.03zm203.92-49.1h21.74v46h60v-46h22v116l-21.5-0.5-0.54-24.5c-0.3-13.48-0.64-24.61-0.75-24.75-0.12-0.14-13.37-0.14-58.71 0.25l-0.52 50-9.74-0.57c-5.36-0.31-10.3-0.87-10.99-1.25-0.98-0.53-1.22-13-1.12-57.68zm172.13 0l23.11 0.02 6.94 15.74c3.81 8.66 15.41 34.41 25.77 57.24 10.35 22.83 18.82 41.73 18.81 42-0.01 0.27-3.51 0.42-7.77 0.32-4.26-0.1-9.1-0.21-10.75-0.24-2.85-0.05-3.28-0.66-8.89-12.82-3.24-7.02-6.09-12.99-6.33-13.26-0.25-0.28-13.34-0.35-29.11-0.18-17.18 0.2-29.07 0.73-29.67 1.32-0.55 0.55-3.28 6.48-11.15 25.36l-10.42 0.26c-5.74 0.14-10.75-0.08-11.15-0.5-0.39-0.42 1.78-6.16 4.84-12.76 3.05-6.6 9.52-20.77 14.37-31.5 4.85-10.73 12.72-28.05 17.48-38.5 4.77-10.45 9.85-22.04 11.3-25.75zm-1.08 50.25c-4.57 10.86-8.31 19.98-8.31 20.25 0 0.27 9.15 0.5 20.33 0.5 11.18 0 20.52-0.23 20.75-0.51 0.23-0.28-0.8-3.77-2.27-7.75-1.48-3.98-5.84-14.89-9.69-24.24-3.84-9.35-7.4-17.13-7.91-17.3-0.51-0.16-1.75 1.86-2.75 4.5-1.01 2.64-5.57 13.69-10.15 24.55z"/>
</svg>